<svg id="Layer_1" data-name="Layer 1" xmlns="http://www.w3.org/2000/svg" viewBox="0 0 33.95 38.97"><title>Jollibee-Logo_Mascot-full</title><path d="M29.38,22.13c.06.2,1.17.22,1.83.37a2.48,2.48,0,0,1,1.85,1.61,6.47,6.47,0,0,1-.06,5,15.24,15.24,0,0,1-4.49,5.57c-.17.14-3.47,4.91-6.23,3.86-.55-.21-11.71.3-16.3-4.4a5.51,5.51,0,0,1-1.13-3.77c.13-1.58,1.87-2.92,3.64-3a10.17,10.17,0,0,1,2.19.18c.09,0,.21.09.28,0s-.06-.15-.1-.23l-.2-.45c-.92-2.08-2.08-4.37-1.33-6.59,1.56-5.39,15-6.3,16.31-5.2S29.07,17,29.38,22.13Z" transform="translate(-0.05 0.01)" style="fill:#fbfbfa"/><path d="M29.07,22.73a18,18,0,0,0-.48-2.63,7.69,7.69,0,0,0-2.36-3.6A3.79,3.79,0,0,0,22,15.72a4,4,0,0,0-2.25,3.63v1.13a1.88,1.88,0,0,1-.34-.3A14.19,14.19,0,0,0,17.14,18a4.71,4.71,0,0,0-7,2.47,8.59,8.59,0,0,0,.58,6.42l.2.45a7.51,7.51,0,0,0-2.19-.16,4.05,4.05,0,0,0-1.67.21c-.3.13-.63.31-.73,0a13,13,0,0,1-.72-4.73A11.32,11.32,0,0,1,12,13.19a1,1,0,0,0,.21-1.25,5.65,5.65,0,0,1-.42-2.81c.1-1.15.85-1.49,1.15-1.46a.85.85,0,0,1,.62.62c.12.64,0,3.8.32,3.91.55.2,1.27-.32,2.28-.37,2.19-.1,3.15-.14,3.23-.52C20,5.7,23,6.88,22.72,7.36a19.54,19.54,0,0,1-1.46,2.29c-.58.84-.62,2-.31,2.08,4.25.66,8.67,3.8,9.47,9,0,.3.42,1.52-.21,1.67A3.91,3.91,0,0,0,29.07,22.73Z" transform="translate(-0.05 0.01)" style="fill:#ed1b2e"/><path d="M6.62,15.8C6.2,16,2.18,17.24.85,14.39S1.71,8.78,4.59,8s3.32-.77,3.47-1.16,2.17-5,5.74-5.94,6.35-.38,6.65,3.5C20,6.5,18.68,8.31,17.64,8.65c-.28.33.33,2.91.33,2.91s-3.75.94-4,.94-.44-1.88-.41-3.13-.25-1.74-.88-1.66-1.22,1.8-1,2.71.84,2.56.84,2.56l-4.8,3.6Z" transform="translate(-0.05 0.01)" style="fill:#fbfbfa"/><path d="M29.79,34.11a26.55,26.55,0,0,0-2.86,2.8,5.5,5.5,0,0,1-3.69,2,8.7,8.7,0,0,1-3-.2c-1-.15-2-.25-3-.35a30.78,30.78,0,0,1-7.7-1.42A8.28,8.28,0,0,1,5.41,34a4.87,4.87,0,0,1-.74-4.53A3.53,3.53,0,0,1,5.75,28,.63.63,0,0,0,6,27.2a11.08,11.08,0,0,1,1-9.56l.21-.35c.3-.5.25-.75-.19-1.08-.2-.16-.39-.06-.59,0a4.81,4.81,0,0,1-5.22-.91A3.85,3.85,0,0,1,1,10a9.78,9.78,0,0,1,4.6-2.6A10.13,10.13,0,0,1,7.26,7a.78.78,0,0,0,.67-.53A11.21,11.21,0,0,1,9.36,4,9.54,9.54,0,0,1,15.63.06a4.32,4.32,0,0,1,5,3.48q0,.16,0,.32c.3,1.86-.63,3.22-1.93,4.4a3.94,3.94,0,0,1-.46.36c-.84.56-.65.34-.42,1.29a9.85,9.85,0,0,1,.27,1c.07.47.35.54.74.5s.34-.33.36-.61A5,5,0,0,1,21.2,7a2,2,0,0,1,.56-.28.8.8,0,0,1,1.11.78,2.23,2.23,0,0,1-.46,1.2c-.31.46-.65.9-1,1.34l-.2.3c-.55.89-.49,1,.5,1.28A11.7,11.7,0,0,1,28,15.1a11.29,11.29,0,0,1,2.88,6.4c0,.37-.14.64.51.61,1.2,0,2.08,1.56,2.21,1.91a7,7,0,0,1,.19,4C33.11,30.59,31.07,32.74,29.79,34.11Zm-.7-11.42a6.48,6.48,0,0,1,1-.57c.18-.09.28-.16.25-.36a5.24,5.24,0,0,0-.09-.89A10.63,10.63,0,0,0,21.08,12c-.31,0-.36.07-.37.33s0,.45-.12.65c-.21-.11-.18-.3-.19-.47a4.08,4.08,0,0,1,.73-2.77A12.35,12.35,0,0,0,22.31,8c.11-.23.22-.49,0-.71s-.5-.1-.75,0a1,1,0,0,0-.27.16,5,5,0,0,0-1.59,2.85,6.5,6.5,0,0,0-.07,2.32c0,.11.06.24-.1.31a.65.65,0,0,1-.21-.57c0-.4-.19-.46-.53-.46a13.59,13.59,0,0,0-3.68.54c-.94.26-.93.26-.48,1.13.06.11.22.24.07.35s-.23-.09-.3-.18a4.13,4.13,0,0,1-1-3.34,6.54,6.54,0,0,0,0-1.93A.46.46,0,0,0,13,7.92a.61.61,0,0,0-.62.37,2.32,2.32,0,0,0-.28.94,6,6,0,0,0,.44,2.91A9.81,9.81,0,0,0,13.61,14c.08.11.28.26.15.37s-.28-.1-.38-.2a4.82,4.82,0,0,1-.52-.62.3.3,0,0,0-.4-.14l0,0A11.25,11.25,0,0,0,5.92,22.8,10.46,10.46,0,0,0,6.5,27c.1.31.21.37.51.24a4.5,4.5,0,0,1,1.74-.35,7.43,7.43,0,0,1,2.16.38c0,.07.16.13.1.23s-.19,0-.28,0a10.17,10.17,0,0,0-2.19-.18A3.58,3.58,0,0,0,5,30.4a4.86,4.86,0,0,0,1.07,3.53A8.12,8.12,0,0,0,10,36.5a27,27,0,0,0,5.94,1.17,11.87,11.87,0,0,0,2.52.16c0-.13-.4-.39-.31-.53s.25,0,.36,0l1.63.64A5.55,5.55,0,0,0,27.43,35q.08-.19.15-.38c0-.08,0-.3.21-.3,0,.17.07.4.09.59a19.08,19.08,0,0,0,5-5.9,6.34,6.34,0,0,0,.24-4.94,2.48,2.48,0,0,0-1.91-1.6,3.06,3.06,0,0,0-1.89.19c-.22.09-.32.07-.22,0ZM4,13.59V13.5a4.77,4.77,0,0,1,1.43.7,14.13,14.13,0,0,1,2.13,1.86c.15.15.25.23.43,0A12.27,12.27,0,0,1,12,13c.27-.14.24-.25.13-.47a5.42,5.42,0,0,1-.66-2.77A3.75,3.75,0,0,1,12,7.86a1,1,0,0,1,1-.53.93.93,0,0,1,.77.83,3.73,3.73,0,0,1,.09.53,14.78,14.78,0,0,1-.06,1.89,4.55,4.55,0,0,0,.1,1.34c0,.18.1.25.3.18a13,13,0,0,1,3.16-.67c.26,0,.27-.12.2-.34-.13-.4-.23-.8-.33-1.21a11.89,11.89,0,0,1-.52-3.59.4.4,0,0,1,.19-.42c.2.86.31,1.72.58,2.58a6.55,6.55,0,0,0,1.78-1.6A3.8,3.8,0,0,0,15.52.73a8.39,8.39,0,0,0-3.35,1.36A11.73,11.73,0,0,0,7.71,8.34a4.62,4.62,0,0,1-.2.5A.16.16,0,0,1,7.3,9c-.1,0-.1-.14-.08-.23A7.62,7.62,0,0,1,7.41,8c.1-.3.13-.46-.28-.33s-1.08.25-1.61.42a9.18,9.18,0,0,0-3.81,2,3.37,3.37,0,0,0-.44,4.56,4.13,4.13,0,0,0,5,1Z" transform="translate(-0.05 0.01)" style="fill:#13110d"/><path d="M18.73,26.41a12.61,12.61,0,0,0-.19-3A5.17,5.17,0,0,0,16,19.5a2.84,2.84,0,0,0-3.44.47,3.89,3.89,0,0,0-1.18,2.74,8.11,8.11,0,0,0,.94,3.93c.09.17.27.37,0,.48s-.08.33.24.28c1.16-.19,2.33-.3,3.5-.43h2.31c.36,0,.44-.14.4-.45ZM16,23.61c-.37.21-.7.34-1,.54h0c.17-.4.31-.81.51-1.19s.06-.51-.24-.68a2.15,2.15,0,0,0-3.13,1.22l-.22.58a4,4,0,0,1,.8-3.55,2.42,2.42,0,0,1,3-.6,4.21,4.21,0,0,1,2,2.35,10.16,10.16,0,0,1,.56,3.93c0,.25-.11.35-.36.34a3.72,3.72,0,0,1-1,0c-.27-.1,0-.6,0-.91a4.81,4.81,0,0,0-.37-1.79C16.44,23.5,16.36,23.43,16,23.61Z" transform="translate(-0.05 0.01)" style="fill:#13110d"/><path d="M24,17.14a3.08,3.08,0,0,1,2.18,1.08,6.52,6.52,0,0,1,1.63,3.52c0,.39-.08.93.39,1.25.12.08-.07.2-.17.25l-.88.46-3.48,1.75c-.21.11-.36.17-.53-.07a8.71,8.71,0,0,1-1.66-6A2.47,2.47,0,0,1,24,17.14Zm.64,4.62a3.42,3.42,0,0,0,1-.54c.24-.16.36-.11.48.14a5.31,5.31,0,0,1,.53,1.8c0,.09-.06.22.08.27s.88-.42.85-.67a12.33,12.33,0,0,0-.23-1.42,5.87,5.87,0,0,0-1.86-3.16,2.15,2.15,0,0,0-2.91,0,3.51,3.51,0,0,0-.48,3.32c.06-.16.1-.3.15-.44a1.91,1.91,0,0,1,2.45-1.13l.28.13c.25.15.33.3.18.58s-.29.69-.48,1.11Z" transform="translate(-0.05 0.01)" style="fill:#13110d"/><path d="M12.87,31.07a6.1,6.1,0,0,0,1.27-.43,2.82,2.82,0,0,0,.79-.77s.32,0,0,.65a.13.13,0,0,0,0,.15,3.19,3.19,0,0,0,1.47.41c1.22.16,4.88.34,6.74-.36a7.76,7.76,0,0,0,4.36-3.35s.13-.17-.22-.19-.53-.39-.23-.36a2.76,2.76,0,0,0,1.11,0A3.41,3.41,0,0,0,29,26.5c.16,0,.11.24-.14.31a2.33,2.33,0,0,0-1.16.86,24.49,24.49,0,0,0-1.86,3.24c-.36.91-1,3.36-3.71,3.14-1.86-.15-1.75-.87-4.39-2-2.84-1-2.86-1.16-3.42-1.06S12.8,31.23,12.87,31.07Z" transform="translate(-0.05 0.01)" style="fill:#13110d"/><path d="M19.9,32.5a3.24,3.24,0,0,1,3.27-.17c.08-.24-.27-.31-.16-.49s.4-.25.62-.33h.09c.42,0,1-.1,1.15.27s-.26.62-.5.88a2.53,2.53,0,0,1-2.57.84A5.35,5.35,0,0,1,19.9,32.5Z" transform="translate(-0.05 0.01)" style="fill:#ed1b2e"/><path d="M25.25,33.72a2.3,2.3,0,0,1-2,1.66,2.94,2.94,0,0,1-2.86-.88A5.28,5.28,0,0,0,23,35,3.78,3.78,0,0,0,25.25,33.72Z" transform="translate(-0.05 0.01)" style="fill:#13110d"/><path d="M23.18,27.17a.82.82,0,0,1,.27,1.13l0,.07a1.76,1.76,0,0,1-1.67.65,1.68,1.68,0,0,1-1.47-.88,3.42,3.42,0,0,0,1.84.29C23,28.24,23.27,27.91,23.18,27.17Z" transform="translate(-0.05 0.01)" style="fill:#13110d"/></svg>